<svg width="1200" height="900" viewBox="0 0 1200 900" fill="none" xmlns="http://www.w3.org/2000/svg">
  <rect width="1200" height="900" rx="40" fill="#F8FAFC"/>
  <rect x="40" y="40" width="1120" height="820" rx="32" fill="url(#bg)"/>
  <g opacity="0.14">
    <circle cx="212" cy="180" r="120" fill="#0F766E"/>
    <circle cx="980" cy="196" r="158" fill="#F97316"/>
    <circle cx="882" cy="748" r="144" fill="#0F766E"/>
  </g>
  <path d="M698.4 778.0 L646.5 768.3 L613.6 780.0 L566.4 763.5 L526.7 762.4 L464.5 718.3 L389.0 703.3 L360.3 641.5 L360.1 607.0 L318.3 596.5 L207.9 489.4 L177.2 432.9 L157.6 415.5 L120.0 337.5 L229.1 348.2 L260.8 359.4 L293.7 357.1 L347.7 294.0 L432.6 213.7 L467.5 206.1 L479.4 172.2 L535.0 133.4 L608.9 120.0 L615.2 156.4 L696.6 154.5 L741.8 175.1 L762.8 199.2 L809.3 206.3 L860.0 237.6 L860.2 361.1 L841.2 428.8 L837.0 501.7 L852.7 530.6 L841.6 588.0 L826.9 596.9 L801.2 667.3 L698.4 778.0 Z" fill="#F8FAFC" stroke="#0F172A" stroke-width="14" stroke-linejoin="round"/>
  <path d="M698.4 778.0 L646.5 768.3 L613.6 780.0 L566.4 763.5 L526.7 762.4 L464.5 718.3 L389.0 703.3 L360.3 641.5 L360.1 607.0 L318.3 596.5 L207.9 489.4 L177.2 432.9 L157.6 415.5 L120.0 337.5 L229.1 348.2 L260.8 359.4 L293.7 357.1 L347.7 294.0 L432.6 213.7 L467.5 206.1 L479.4 172.2 L535.0 133.4 L608.9 120.0 L615.2 156.4 L696.6 154.5 L741.8 175.1 L762.8 199.2 L809.3 206.3 L860.0 237.6 L860.2 361.1 L841.2 428.8 L837.0 501.7 L852.7 530.6 L841.6 588.0 L826.9 596.9 L801.2 667.3 L698.4 778.0 Z" fill="url(#countryFill)" opacity="0.85"/>
  <path d="M698.4 778.0 L646.5 768.3 L613.6 780.0 L566.4 763.5 L526.7 762.4 L464.5 718.3 L389.0 703.3 L360.3 641.5 L360.1 607.0 L318.3 596.5 L207.9 489.4 L177.2 432.9 L157.6 415.5 L120.0 337.5 L229.1 348.2 L260.8 359.4 L293.7 357.1 L347.7 294.0 L432.6 213.7 L467.5 206.1 L479.4 172.2 L535.0 133.4 L608.9 120.0 L615.2 156.4 L696.6 154.5 L741.8 175.1 L762.8 199.2 L809.3 206.3 L860.0 237.6 L860.2 361.1 L841.2 428.8 L837.0 501.7 L852.7 530.6 L841.6 588.0 L826.9 596.9 L801.2 667.3 L698.4 778.0 Z" fill="none" stroke="#0F766E" stroke-width="5" stroke-linejoin="round" stroke-dasharray="10 10" opacity="0.45"/>
  <g fill="#0F172A" opacity="0.8" font-family="Segoe UI, Arial, sans-serif" font-size="24" font-weight="700">
    <text x="188" y="118">Zimbabwe Coverage</text>
    <text x="188" y="154" opacity="0.66" font-size="18" font-weight="500">Real outline with province coverage markers</text>
  </g>
  <defs>
    <linearGradient id="bg" x1="110" y1="102" x2="1066" y2="810" gradientUnits="userSpaceOnUse">
      <stop stop-color="#FFFBF5"/>
      <stop offset="1" stop-color="#ECFDF5"/>
    </linearGradient>
    <linearGradient id="countryFill" x1="274" y1="174" x2="885" y2="764" gradientUnits="userSpaceOnUse">
      <stop stop-color="#FFF7ED"/>
      <stop offset="1" stop-color="#DCFCE7"/>
    </linearGradient>
  </defs>
</svg>